<svg xmlns="http://www.w3.org/2000/svg" width="600" height="400" viewBox="0 0 600 400"><rect width="100%" height="100%" fill="#DDDDDD"/><path fill="#999999" d="M165.915 118.715h10.07v61.46h-5.87q-1.36 0-2.27-.45-.92-.44-1.77-1.51l-32.08-40.97q.25 2.81.25 5.19v37.74h-10.07v-61.46h5.99q.72 0 1.26.07.53.06.93.25t.79.56q.38.36.85.95l32.21 41.14q-.13-1.49-.21-2.93-.08-1.45-.08-2.68v-37.36Zm41.39 17.17q4.84 0 8.82 1.58 3.97 1.57 6.8 4.46 2.83 2.89 4.36 7.05 1.53 4.17 1.53 9.31 0 5.19-1.53 9.35-1.53 4.17-4.36 7.1-2.83 2.93-6.8 4.5-3.98 1.58-8.82 1.58-4.89 0-8.88-1.58-4-1.57-6.82-4.5-2.83-2.93-4.38-7.1-1.55-4.16-1.55-9.35 0-5.14 1.55-9.31 1.55-4.16 4.38-7.05 2.82-2.89 6.82-4.46 3.99-1.58 8.88-1.58Zm0 36.85q5.44 0 8.05-3.65 2.62-3.66 2.62-10.71 0-7.06-2.62-10.75-2.61-3.7-8.05-3.7-5.53 0-8.18 3.72-2.66 3.71-2.66 10.73 0 7.01 2.66 10.69 2.65 3.67 8.18 3.67Zm50.53-36.17h10.54v43.61h-10.54v-43.61Zm11.99-12.7q0 1.36-.55 2.55-.56 1.19-1.47 2.08-.91.89-2.15 1.42-1.23.53-2.63.53-1.36 0-2.57-.53-1.21-.53-2.11-1.42-.89-.89-1.42-2.08-.53-1.19-.53-2.55 0-1.41.53-2.64.53-1.23 1.42-2.12.9-.9 2.11-1.43 1.21-.53 2.57-.53 1.4 0 2.63.53 1.24.53 2.15 1.43.91.89 1.47 2.12.55 1.23.55 2.64Zm19.76 56.31h-10.5v-43.61h6.42q2.04 0 2.68 1.92l.68 3.23q1.15-1.28 2.4-2.34 1.25-1.06 2.68-1.83 1.42-.76 3.06-1.21 1.63-.45 3.59-.45 4.12 0 6.78 2.24 2.65 2.23 3.97 5.92 1.02-2.16 2.55-3.71 1.53-1.56 3.36-2.53 1.83-.98 3.89-1.45t4.14-.47q3.61 0 6.42 1.11 2.8 1.1 4.72 3.23 1.91 2.12 2.91 5.18 1 3.06 1 7.02v27.75h-10.5v-27.75q0-4.17-1.83-6.27-1.83-2.11-5.35-2.11-1.62 0-3 .56-1.38.55-2.42 1.59t-1.64 2.61q-.59 1.58-.59 3.62v27.75h-10.54v-27.75q0-4.38-1.77-6.38-1.76-2-5.16-2-2.3 0-4.27 1.13-1.98 1.13-3.68 3.08v31.92Zm83.73-11.26v-7.36q-4.55.22-7.65.79-3.11.57-4.98 1.47-1.87.89-2.67 2.08-.81 1.19-.81 2.59 0 2.76 1.63 3.95 1.64 1.19 4.28 1.19 3.23 0 5.58-1.16 2.36-1.17 4.62-3.55Zm-22.19-22.91-1.87-3.36q7.52-6.88 18.11-6.88 3.82 0 6.84 1.25t5.1 3.49q2.08 2.23 3.16 5.33 1.09 3.1 1.09 6.8v27.54h-4.76q-1.49 0-2.3-.45-.8-.44-1.27-1.8l-.94-3.15q-1.65 1.49-3.23 2.62-1.57 1.12-3.27 1.89-1.7.76-3.63 1.17-1.94.4-4.27.4-2.77 0-5.1-.74-2.34-.75-4.04-2.24-1.7-1.48-2.64-3.69-.93-2.21-.93-5.15 0-1.65.55-3.29.55-1.64 1.81-3.12 1.25-1.49 3.25-2.81t4.91-2.29q2.91-.98 6.78-1.6 3.86-.61 8.84-.74v-2.55q0-4.38-1.87-6.48-1.87-2.11-5.4-2.11-2.55 0-4.23.6-1.68.59-2.95 1.34l-2.32 1.34q-1.04.59-2.32.59-1.1 0-1.87-.57-.76-.58-1.23-1.34Zm58.23 11.3q1.95 0 3.4-.53 1.44-.53 2.4-1.46.95-.94 1.44-2.26.49-1.31.49-2.89 0-3.22-1.93-5.12-1.94-1.89-5.8-1.89-3.87 0-5.81 1.89-1.93 1.9-1.93 5.12 0 1.53.49 2.85t1.44 2.28q.96.95 2.43 1.48 1.46.53 3.38.53Zm11.85 24.83q0-1.28-.76-2.09-.77-.81-2.08-1.25-1.32-.45-3.09-.66-1.76-.21-3.74-.32-1.97-.11-4.08-.19-2.1-.09-4.1-.34-1.74.98-2.82 2.29-1.09 1.32-1.09 3.07 0 1.14.58 2.14.57 1 1.82 1.72 1.26.73 3.26 1.13 1.99.4 4.88.4 2.94 0 5.06-.44 2.13-.45 3.51-1.24 1.38-.78 2.02-1.87.63-1.08.63-2.35Zm-2.08-44.08h12.54v3.91q0 1.87-2.25 2.3l-3.91.72q.89 2.25.89 4.93 0 3.23-1.3 5.84-1.29 2.62-3.59 4.44-2.29 1.83-5.42 2.83-3.12 1-6.73 1-1.28 0-2.47-.13-1.19-.13-2.34-.34-2.04 1.23-2.04 2.76 0 1.32 1.21 1.94 1.22.61 3.21.87 2 .26 4.55.32t5.23.27q2.68.22 5.23.75 2.55.53 4.54 1.68 2 1.14 3.21 3.12 1.21 1.98 1.21 5.08 0 2.89-1.42 5.61t-4.12 4.85q-2.7 2.12-6.63 3.42-3.93 1.29-8.95 1.29-4.93 0-8.58-.95-3.66-.96-6.08-2.55-2.42-1.6-3.61-3.68t-1.19-4.33q0-3.06 1.84-5.13 1.85-2.06 5.08-3.29-1.74-.89-2.76-2.38-1.02-1.49-1.02-3.91 0-.98.36-2.02t1.06-2.06q.71-1.02 1.77-1.93 1.06-.92 2.51-1.64-3.32-1.79-5.21-4.76-1.89-2.98-1.89-6.97 0-3.23 1.29-5.84 1.3-2.62 3.62-4.47 2.31-1.85 5.48-2.82 3.17-.98 6.91-.98 2.8 0 5.27.57 2.46.58 4.5 1.68Zm27.46 15.3h19.8q0-2.04-.57-3.84-.58-1.81-1.72-3.17-1.15-1.36-2.92-2.15-1.76-.78-4.1-.78-4.54 0-7.16 2.59-2.61 2.59-3.33 7.35Zm26.77 6.33h-26.99q.26 3.36 1.19 5.81.94 2.44 2.47 4.03 1.53 1.6 3.63 2.38 2.11.79 4.66.79 2.55 0 4.39-.6 1.85-.59 3.23-1.31 1.39-.73 2.43-1.32 1.04-.6 2.02-.6 1.31 0 1.95.98l3.02 3.83q-1.74 2.04-3.91 3.42t-4.53 2.21q-2.36.83-4.8 1.17-2.44.34-4.74.34-4.55 0-8.46-1.51-3.91-1.51-6.8-4.46-2.89-2.96-4.54-7.31-1.66-4.36-1.66-10.1 0-4.46 1.44-8.39 1.45-3.93 4.15-6.84 2.7-2.92 6.58-4.62 3.89-1.7 8.78-1.7 4.12 0 7.61 1.32 3.48 1.32 5.99 3.85 2.51 2.53 3.93 6.2 1.43 3.68 1.43 8.4 0 2.38-.51 3.21-.51.82-1.96.82Zm-295.4 66.82-2.84 5.39q-.51.9-1.09 1.3-.57.4-1.42.4-.89 0-1.94-.66-1.04-.65-2.48-1.46-1.45-.81-3.38-1.47-1.93-.66-4.57-.66-2.38 0-4.16.58-1.79.57-3 1.59t-1.81 2.44q-.59 1.43-.59 3.13 0 2.17 1.21 3.61 1.21 1.45 3.21 2.47 2 1.02 4.55 1.82 2.55.81 5.22 1.72 2.68.92 5.23 2.13 2.55 1.21 4.55 3.06t3.21 4.53q1.21 2.67 1.21 6.5 0 4.16-1.43 7.8-1.42 3.63-4.16 6.33t-6.69 4.25q-3.96 1.55-9.06 1.55-2.93 0-5.78-.57-2.84-.58-5.46-1.64-2.61-1.06-4.91-2.55-2.29-1.49-4.08-3.31l3.36-5.49q.43-.59 1.11-1 .68-.4 1.44-.4 1.06 0 2.3.87 1.23.87 2.93 1.94 1.7 1.06 3.97 1.93 2.28.87 5.46.87 4.89 0 7.57-2.32 2.68-2.31 2.68-6.65 0-2.42-1.21-3.95-1.22-1.53-3.21-2.57-2-1.04-4.55-1.76-2.55-.73-5.19-1.58-2.63-.85-5.18-2.04t-4.55-3.1q-2-1.91-3.21-4.78t-1.21-7.08q0-3.35 1.34-6.54t3.89-5.65q2.55-2.47 6.29-3.96 3.74-1.48 8.58-1.48 5.44 0 10.03 1.7 4.59 1.7 7.82 4.76Zm17.68 28.85h19.81q0-2.04-.58-3.84-.57-1.81-1.72-3.17-1.14-1.36-2.91-2.15-1.76-.78-4.1-.78-4.55 0-7.16 2.59-2.61 2.59-3.34 7.35Zm26.78 6.34h-26.99q.26 3.35 1.19 5.8.94 2.44 2.47 4.03 1.53 1.6 3.63 2.38 2.1.79 4.65.79 2.55 0 4.4-.59 1.85-.6 3.23-1.32 1.38-.72 2.42-1.32 1.05-.59 2.02-.59 1.32 0 1.96.97l3.02 3.83q-1.75 2.04-3.91 3.42-2.17 1.38-4.53 2.21-2.36.83-4.8 1.17-2.45.34-4.74.34-4.55 0-8.46-1.51-3.91-1.51-6.8-4.46-2.89-2.96-4.55-7.31-1.65-4.36-1.65-10.1 0-4.46 1.44-8.39 1.45-3.93 4.14-6.84 2.7-2.91 6.59-4.61 3.89-1.7 8.78-1.7 4.12 0 7.61 1.31 3.48 1.32 5.99 3.85 2.51 2.53 3.93 6.2 1.42 3.68 1.42 8.4 0 2.38-.51 3.21-.51.83-1.95.83Zm10.45-42.67h10.5v63.15h-10.5v-63.15Zm29.29 36.33h19.8q0-2.04-.57-3.84-.58-1.81-1.72-3.17-1.15-1.36-2.91-2.15-1.77-.78-4.11-.78-4.54 0-7.16 2.59-2.61 2.59-3.33 7.35Zm26.77 6.34h-26.99q.26 3.35 1.19 5.8.94 2.44 2.47 4.03 1.53 1.6 3.63 2.38 2.11.79 4.66.79 2.55 0 4.4-.59 1.84-.6 3.23-1.32 1.38-.72 2.42-1.32 1.04-.59 2.02-.59 1.31 0 1.95.97l3.02 3.83q-1.74 2.04-3.91 3.42t-4.53 2.21q-2.36.83-4.8 1.17-2.44.34-4.74.34-4.55 0-8.46-1.51-3.91-1.51-6.8-4.46-2.89-2.96-4.54-7.31-1.66-4.36-1.66-10.1 0-4.46 1.44-8.39 1.45-3.93 4.15-6.84 2.7-2.91 6.59-4.61 3.88-1.7 8.77-1.7 4.12 0 7.61 1.31 3.48 1.32 5.99 3.85 2.51 2.53 3.93 6.2 1.43 3.68 1.43 8.4 0 2.38-.51 3.21-.51.83-1.96.83Zm44.33-17.73-2.76 3.83q-.47.59-.92.93-.44.34-1.29.34-.81 0-1.58-.49-.76-.48-1.82-1.1-1.07-.62-2.53-1.11-1.47-.48-3.64-.48-2.76 0-4.84.99-2.08 1-3.46 2.87-1.39 1.87-2.07 4.53-.68 2.66-.68 6.01 0 3.49.75 6.21.74 2.72 2.14 4.57 1.41 1.85 3.4 2.8 2 .96 4.51.96t4.06-.62q1.55-.61 2.61-1.36 1.06-.74 1.85-1.36.79-.61 1.76-.61 1.28 0 1.92.97l3.01 3.83q-1.74 2.04-3.78 3.42t-4.23 2.21q-2.19.83-4.5 1.17-2.32.34-4.61.34-4.04 0-7.61-1.51-3.57-1.51-6.25-4.4-2.68-2.89-4.23-7.08-1.55-4.18-1.55-9.54 0-4.8 1.38-8.9 1.38-4.1 4.06-7.1 2.68-2.99 6.63-4.69 3.95-1.7 9.1-1.7 4.88 0 8.56 1.57 3.68 1.57 6.61 4.5Zm21.5 38.89q-5.69 0-8.73-3.21t-3.04-8.86v-24.35h-4.46q-.85 0-1.45-.55-.59-.56-.59-1.66v-4.17l7.01-1.14 2.21-11.9q.21-.85.81-1.32.59-.47 1.53-.47h5.44v13.73h11.64v7.48h-11.64v23.63q0 2.04 1 3.19 1 1.14 2.74 1.14.98 0 1.64-.23.65-.23 1.14-.49.49-.25.87-.49.39-.23.77-.23.47 0 .76.23.3.24.64.7l3.15 5.1q-2.3 1.92-5.27 2.89-2.98.98-6.17.98Zm25.38-27.5h19.8q0-2.04-.57-3.84-.58-1.81-1.72-3.17-1.15-1.36-2.91-2.15-1.77-.78-4.11-.78-4.54 0-7.16 2.59-2.61 2.59-3.33 7.35Zm26.77 6.34h-26.99q.26 3.35 1.19 5.8.94 2.44 2.47 4.03 1.53 1.6 3.63 2.38 2.11.79 4.66.79 2.55 0 4.4-.59 1.84-.6 3.23-1.32 1.38-.72 2.42-1.32 1.04-.59 2.02-.59 1.31 0 1.95.97l3.02 3.83q-1.74 2.04-3.91 3.42t-4.53 2.21q-2.36.83-4.8 1.17-2.44.34-4.74.34-4.55 0-8.46-1.51-3.91-1.51-6.8-4.46-2.89-2.96-4.54-7.31-1.66-4.36-1.66-10.1 0-4.46 1.44-8.39 1.45-3.93 4.15-6.84 2.7-2.91 6.59-4.61 3.88-1.7 8.77-1.7 4.12 0 7.61 1.31 3.48 1.32 5.99 3.85 2.51 2.53 3.93 6.2 1.43 3.68 1.43 8.4 0 2.38-.51 3.21-.51.83-1.96.83Zm37.7 7.56v-19.55q-1.79-2.17-3.89-3.06-2.1-.89-4.53-.89-2.38 0-4.29.89-1.91.89-3.27 2.7t-2.08 4.59q-.73 2.78-.73 6.57 0 3.82.62 6.48.62 2.65 1.76 4.33 1.15 1.68 2.81 2.42 1.66.75 3.7.75 3.27 0 5.56-1.36 2.3-1.36 4.34-3.87Zm0-50.23h10.5v63.15h-6.42q-2.08 0-2.64-1.91l-.89-4.21q-2.63 3.02-6.05 4.89-3.43 1.87-7.97 1.87-3.57 0-6.55-1.49-2.97-1.49-5.12-4.31-2.15-2.83-3.31-6.99-1.17-4.17-1.17-9.52 0-4.85 1.31-9.01 1.32-4.17 3.79-7.23 2.46-3.06 5.9-4.78 3.45-1.72 7.74-1.72 3.65 0 6.25 1.15 2.59 1.14 4.63 3.1v-22.99Z"/></svg>